<svg viewBox="0 0 42 20" fill="none" xmlns="http://www.w3.org/2000/svg">
  <path d="M0.175781 13.7505C0.175781 13.7505 1.40815 11.7298 3.85054 12.5944C6.55293 13.5521 9.05041 16.1329 11.2663 15.1035C12.9528 14.32 13.6739 12.1947 13.8132 11.1701C11.2753 14.2736 7.97457 9.95421 4.41366 9.27236C4.19227 9.22987 3.98206 9.21015 3.78243 9.21015C0.765739 9.21015 0.175781 13.7505 0.175781 13.7505Z" fill="url(#paint0_linear)"/>
  <path d="M13.8076 11.1775C13.8076 11.1775 15.04 9.15634 17.4826 10.0214C20.185 10.9789 22.682 13.5597 24.8982 12.5302C26.5847 11.7467 27.3056 9.62168 27.4448 8.59688C24.9071 11.7006 21.606 7.38117 18.0457 6.69912C17.8245 6.65683 17.6139 6.63691 17.4145 6.63691C14.397 6.6365 13.8076 11.1775 13.8076 11.1775Z" fill="url(#paint1_linear)"/>
  <path d="M27.4434 8.60027C27.4434 8.60027 28.6761 6.57952 31.1185 7.44414C31.7166 7.65597 32.3045 7.94749 32.8815 8.26158C32.9199 7.82186 33.1462 7.34005 33.5139 6.99445C34.0801 6.46202 34.7652 6.45714 35.0441 6.98347C35.3233 7.50776 35.0893 8.3675 34.5225 8.89871C34.4538 8.96295 34.3836 9.01926 34.3129 9.06805C35.8083 9.90481 37.2206 10.5633 38.5341 9.95319C40.2212 9.16949 40.9417 7.04425 41.0812 6.01965C38.5433 9.12335 35.2424 4.80395 31.6816 4.1221C31.4603 4.07961 31.2498 4.05969 31.0502 4.05969C28.0335 4.05969 27.4434 8.60027 27.4434 8.60027Z" fill="url(#paint2_linear)"/>
  <path d="M1.54199 7.17135C1.54199 7.17135 2.77457 5.1506 5.21715 6.01562C5.81525 6.22725 6.40318 6.51898 6.98033 6.83287C7.01855 6.39294 7.24502 5.91093 7.61258 5.56574C8.17855 5.03331 8.86385 5.02842 9.14277 5.55475C9.42149 6.07885 9.18791 6.93838 8.62092 7.46979C8.55261 7.53403 8.48227 7.59034 8.41132 7.63934C9.90676 8.4761 11.3192 9.13457 12.6327 8.52448C14.3193 7.74078 15.0404 5.61554 15.1796 4.59094C12.6419 7.69423 9.34078 3.37503 5.78008 2.69318C5.55889 2.65069 5.34828 2.63097 5.14885 2.63077C2.13155 2.63036 1.54199 7.17135 1.54199 7.17135Z" fill="url(#paint3_linear)"/>
  <path d="M15.1738 4.59953C15.1738 4.59953 16.4062 2.57837 18.8488 3.44319C21.5514 4.40071 24.0485 6.98132 26.2642 5.95225C27.9509 5.16875 28.672 3.0433 28.8108 2.0187C26.2733 5.12219 22.972 0.802797 19.4117 0.12115C19.1905 0.078662 18.9799 0.0587372 18.7803 0.0587372C15.7632 0.0581275 15.1738 4.59953 15.1738 4.59953Z" fill="url(#paint4_linear)"/>
  <path d="M12.3906 17.7059C12.3906 17.7059 13.6228 15.6845 16.0654 16.5497C16.6633 16.7614 17.2516 17.0529 17.8283 17.3672C17.8668 16.9272 18.0932 16.4454 18.4608 16.0996C19.027 15.5674 19.7121 15.5623 19.991 16.0886C20.2699 16.6134 20.0361 17.4725 19.4693 18.0041C19.4008 18.0683 19.3307 18.1246 19.2595 18.1734C20.7552 19.0102 22.1675 19.6687 23.4808 19.0588C25.1675 18.2751 25.8886 16.1498 26.0276 15.125C23.4899 18.2287 20.1888 13.9093 16.6283 13.2275C16.4071 13.1852 16.1965 13.1653 15.9971 13.1653C12.9798 13.1647 12.3906 17.7059 12.3906 17.7059Z" fill="url(#paint5_linear)"/>
  <path d="M26.0273 15.1281C26.0273 15.1281 27.2597 13.1074 29.7021 13.972C32.4049 14.9299 34.902 17.5104 37.1179 16.4809C38.8044 15.6976 39.5257 13.5723 39.6648 12.5479C37.1266 15.6512 33.8259 11.3318 30.265 10.65C30.0438 10.6077 29.8334 10.5878 29.634 10.5878C26.6167 10.5872 26.0273 15.1281 26.0273 15.1281Z" fill="url(#paint6_linear)"/>
  <defs>
    <linearGradient id="paint0_linear" x1="13.8133" y1="12.2759" x2="0.175749" y2="12.2759" gradientUnits="userSpaceOnUse">
      <stop stop-color="#3052A9"/>
      <stop offset="1" stop-color="#56BEEE"/>
    </linearGradient>
    <linearGradient id="paint1_linear" x1="27.4447" y1="9.70272" x2="13.8077" y2="9.70272" gradientUnits="userSpaceOnUse">
      <stop stop-color="#3052A9"/>
      <stop offset="1" stop-color="#56BEEE"/>
    </linearGradient>
    <linearGradient id="paint2_linear" x1="41.0811" y1="7.12565" x2="27.4435" y2="7.12565" gradientUnits="userSpaceOnUse">
      <stop stop-color="#3052A9"/>
      <stop offset="1" stop-color="#56BEEE"/>
    </linearGradient>
    <linearGradient id="paint3_linear" x1="1.542" y1="5.69676" x2="15.1797" y2="5.69676" gradientUnits="userSpaceOnUse">
      <stop stop-color="#E9E9E9"/>
      <stop offset="1" stop-color="#A9AAAD"/>
    </linearGradient>
    <linearGradient id="paint4_linear" x1="15.1739" y1="3.12457" x2="28.8109" y2="3.12457" gradientUnits="userSpaceOnUse">
      <stop stop-color="#E9E9E9"/>
      <stop offset="1" stop-color="#A9AAAD"/>
    </linearGradient>
    <linearGradient id="paint5_linear" x1="26.0276" y1="16.231" x2="12.3907" y2="16.231" gradientUnits="userSpaceOnUse">
      <stop stop-color="#C11940"/>
      <stop offset="1" stop-color="#E7332B"/>
    </linearGradient>
    <linearGradient id="paint6_linear" x1="39.6648" y1="13.6535" x2="26.0273" y2="13.6535" gradientUnits="userSpaceOnUse">
      <stop stop-color="#C11940"/>
      <stop offset="1" stop-color="#E7332B"/>
    </linearGradient>
  </defs>
</svg>
